<?xml version="1.0" encoding="UTF-8" standalone="no"?>
<svg
   xmlns:dc="http://purl.org/dc/elements/1.1/"
   xmlns:cc="http://creativecommons.org/ns#"
   xmlns:rdf="http://www.w3.org/1999/02/22-rdf-syntax-ns#"
   xmlns:svg="http://www.w3.org/2000/svg"
   xmlns="http://www.w3.org/2000/svg"
   viewBox="0 0 525.33331 156"
   height="156"
   width="525.33331"
   xml:space="preserve"
   id="svg2"
   version="1.1"><metadata
     id="metadata8"><rdf:RDF><cc:Work
         rdf:about=""><dc:format>image/svg+xml</dc:format><dc:type
           rdf:resource="http://purl.org/dc/dcmitype/StillImage" /></cc:Work></rdf:RDF></metadata><defs
     id="defs6"><clipPath
       id="clipPath26"
       clipPathUnits="userSpaceOnUse"><path
         id="path24"
         d="M 0,117 H 394 V 0 H 0 Z" /></clipPath></defs><g
     transform="matrix(1.3333333,0,0,-1.3333333,0,156)"
     id="g10"><g
       transform="translate(109.8999,40.4003)"
       id="g12"><path
         id="path14"
         style="fill:#064c9c;fill-opacity:1;fill-rule:nonzero;stroke:none"
         d="M 0,0 V 40.3 H 2.9 V 2.6 H 27 V 0 Z" /></g><g
       transform="translate(169.7998,42.9999)"
       id="g16"><path
         id="path18"
         style="fill:#064c9c;fill-opacity:1;fill-rule:nonzero;stroke:none"
         d="M 0,0 V -2.6 H -26.9 V 37.7 H -0.6 V 35 H -24 V 19.2 H -3.5 V 16.7 H -24 L -24,0 Z" /></g><g
       id="g20"><g
         clip-path="url(#clipPath26)"
         id="g22"><g
           transform="translate(206.5,46.7001)"
           id="g28"><path
             id="path30"
             style="fill:#064c9c;fill-opacity:1;fill-rule:nonzero;stroke:none"
             d="m 0,0 c -3.9,-4.4 -8.4,-6.6 -13.6,-6.6 -2.7,0 -5.3,0.6 -7.6,1.8 -2.3,1.2 -4.3,2.7 -6,4.7 -1.7,1.9 -3,4.1 -3.9,6.6 -0.9,2.5 -1.4,5 -1.4,7.5 0,2.6 0.5,5.2 1.4,7.7 0.9,2.5 2.2,4.6 3.9,6.5 1.6,1.9 3.6,3.4 5.9,4.5 2.3,1.1 4.7,1.7 7.4,1.7 2,0 3.8,-0.2 5.4,-0.7 1.6,-0.4 3,-1 4.3,-1.8 1.3,-0.8 2.4,-1.7 3.3,-2.8 C 0,28 0.8,26.8 1.5,25.6 l -2.4,-1.4 c -1.4,2.6 -3.2,4.6 -5.4,5.8 -2.3,1.2 -4.8,1.8 -7.6,1.8 -2.4,0 -4.5,-0.5 -6.5,-1.5 -1.9,-1 -3.6,-2.4 -4.9,-4 -1.4,-1.7 -2.4,-3.6 -3.1,-5.7 -0.7,-2.1 -1.1,-4.3 -1.1,-6.5 0,-2.4 0.4,-4.6 1.2,-6.8 0.8,-2.1 2,-4 3.4,-5.6 1.5,-1.6 3.2,-2.9 5.1,-3.9 2,-1 4.1,-1.4 6.4,-1.4 2.5,0 4.8,0.6 7,1.7 2.2,1.1 4.3,2.9 6.4,5.4 v 7.8 h -9.1 v 2.3 H 2.5 L 2.5,-6 H 0 Z" /></g><g
           transform="translate(240.7998,55.9999)"
           id="g32"><path
             id="path34"
             style="fill:#064c9c;fill-opacity:1;fill-rule:nonzero;stroke:none"
             d="M 0,0 -8.8,21.1 -17.8,0 Z m -10,24.7 h 2.5 l 17,-40.3 H 6.4 L 0.8,-2.3 H -18.399 L -24,-15.6 h -3.1 z" /></g><g
           transform="translate(259.2998,58.2001)"
           id="g36"><path
             id="path38"
             style="fill:#064c9c;fill-opacity:1;fill-rule:nonzero;stroke:none"
             d="m 0,0 h 14.101 c 1.299,0 2.5,0.3 3.5,0.9 1.099,0.6 2,1.3 2.699,2.2 0.801,0.9 1.301,2 1.7,3.2 0.4,1.2 0.601,2.4 0.601,3.7 0,1.3 -0.201,2.5 -0.701,3.7 -0.5,1.2 -1.1,2.2 -1.9,3.2 -0.8,0.9 -1.8,1.6 -2.8,2.2 -1,0.6 -2.2,0.8 -3.5,0.8 H 0 Z M -2.899,-17.8 V 22.5 H 13.8 c 1.7,0 3.301,-0.4 4.7,-1.1 1.4,-0.7 2.7,-1.7 3.7,-2.9 1,-1.2 1.901,-2.5 2.401,-4 C 25.2,13 25.5,11.5 25.5,10 25.5,8.5 25.3,7.1 24.8,5.7 24.3,4.3 23.7,3.1 22.9,2 22.101,0.9 21.101,0 19.9,-0.7 18.7,-1.4 17.4,-1.9 16,-2.1 L 26,-17.8 H 22.601 L 12.8,-2.6 H -0.3 v -15.2 z" /></g><g
           transform="translate(320.7998,77.9999)"
           id="g40"><path
             id="path42"
             style="fill:#064c9c;fill-opacity:1;fill-rule:nonzero;stroke:none"
             d="m 0,0 h -14.8 v -37.7 h -2.9 V 0 h -14.8 v 2.6 h 32.4 z" /></g><path
           id="path44"
           style="fill:#064c9c;fill-opacity:1;fill-rule:nonzero;stroke:none"
           d="m 327,80.7 h 2.9 V 40.4 H 327 Z" /><g
           transform="translate(363.9004,73.9999)"
           id="g46"><path
             id="path48"
             style="fill:#064c9c;fill-opacity:1;fill-rule:nonzero;stroke:none"
             d="M 0,0 C -2.601,2.9 -6.301,4.4 -11.101,4.4 -15,4.4 -17.9,3.7 -19.7,2.2 c -1.8,-1.5 -2.7,-3.5 -2.7,-6 0,-1.3 0.2,-2.4 0.7,-3.2 0.5,-0.8 1.2,-1.6 2.099,-2.2 1,-0.6 2.201,-1.1 3.701,-1.5 1.5,-0.4 3.299,-0.9 5.299,-1.3 2.201,-0.5 4.101,-1 5.901,-1.5 1.8,-0.5 3.3,-1.2 4.5,-2.1 1.2,-0.8 2.2,-1.9 2.8,-3.1 0.7,-1.199 1,-2.699 1,-4.5 0,-1.8 -0.401,-3.3 -1,-4.699 -0.701,-1.301 -1.701,-2.401 -3,-3.301 -1.3,-0.9 -2.8,-1.6 -4.5,-2 -1.8,-0.5 -3.701,-0.699 -5.901,-0.699 -6.3,0 -11.599,2 -16,6 l 1.5,2.299 c 1.7,-1.799 3.801,-3.2 6.2,-4.2 2.5,-1 5.201,-1.599 8.3,-1.599 3.5,0 6.301,0.599 8.301,1.899 2,1.3 3,3.2 3,5.9 0,1.3 -0.301,2.4 -0.801,3.4 -0.5,0.9 -1.3,1.7 -2.399,2.4 -1,0.7 -2.401,1.3 -3.901,1.8 -1.599,0.5 -3.399,1 -5.599,1.4 -2.2,0.5 -4.101,0.9 -5.7,1.4 -1.6,0.5 -3,1.2 -4.1,1.9 -1.101,0.8 -2,1.7 -2.5,2.8 -0.601,1.1 -0.9,2.5 -0.9,4.1 0,1.8 0.4,3.4 1.099,4.8 0.7,1.4 1.7,2.6 2.901,3.5 1.2,1 2.7,1.7 4.5,2.2 1.7,0.5 3.7,0.7 5.799,0.7 2.601,0 4.901,-0.4 7,-1.2 2,-0.8 3.901,-2 5.601,-3.5 z" /></g><g
           transform="translate(30.7002,83.4999)"
           id="g50"><path
             id="path52"
             style="fill:#064c9c;fill-opacity:1;fill-rule:nonzero;stroke:none"
             d="m 0,0 v -46 l 32.3,18.7 v 8.6 z m 34.9,-58.3 h -2.6 v 28.1 L -2.5,-50.399 V 4.4 l 37.4,-21.7 z" /></g><g
           transform="translate(39.3999,88.4999)"
           id="g54"><path
             id="path56"
             style="fill:#064c9c;fill-opacity:1;fill-rule:nonzero;stroke:none"
             d="m 0,0 v -56.1 l 32.3,18.6 v 18.8 z M -2.5,-60.399 V 4.4 l 37.4,-21.7 v -41 h -2.5 v 18 z" /></g><g
           transform="translate(48.2002,93.6)"
           id="g58"><path
             id="path60"
             style="fill:#064c9c;fill-opacity:1;fill-rule:nonzero;stroke:none"
             d="m 0,0 v -66.2 l 32.3,18.7 v 28.8 z m -2.6,-70.6 v 75 l 37.4,-21.7 v -41.1 h -2.5 v 7.9 z" /></g><g
           transform="translate(56.8999,98.6)"
           id="g62"><path
             id="path64"
             style="fill:#064c9c;fill-opacity:1;fill-rule:nonzero;stroke:none"
             d="m 0,0 v -76.2 l 32.4,18.7 v 38.8 z m -2.6,-80.6 v 85 L 34.9,-17.2 V -59 Z" /></g><g
           transform="translate(19.3999,38.1005)"
           id="g66"><path
             id="path68"
             style="fill:#064c9c;fill-opacity:1;fill-rule:nonzero;stroke:none"
             d="M 0,0 V 42.6 H 2.6 V 4.399 l 33,19.101 1.2,-2.201 z" /></g></g></g></g></svg>